<svg width="601" height="181" viewBox="0 0 601 181" fill="none" xmlns="http://www.w3.org/2000/svg">
<g filter="url(#filter0_d)">
<path d="M296.678 78.1335L292.545 74H306.782L302.649 78.1335L304.486 86.4004L306.323 159.425L332.502 164.936V167.692H265.907V164.936L294.841 159.425V86.4004L296.678 78.1335Z" fill="#ED14FF" stroke="#ED14FF" stroke-width="4" stroke-linecap="round" stroke-linejoin="round"/>
<path d="M215 74.1193H383.056" stroke="#ED14FF" stroke-width="4" stroke-linecap="round" stroke-linejoin="round"/>
</g>
<g filter="url(#filter1_d)">
<path d="M175.751 166.541L162.982 140.638H177.21L181.223 166.541H175.751Z" stroke="#3ABFEF" stroke-width="4" stroke-linecap="round" stroke-linejoin="round"/>
<path d="M159.698 155.961L152.037 140.638H162.617L163.711 155.961H159.698Z" stroke="#3ABFEF" stroke-width="4" stroke-linecap="round" stroke-linejoin="round"/>
<path d="M18.145 140.638V136.625L189.249 136.26V140.638H18.145Z" fill="#3ABFEF" stroke="#3ABFEF" stroke-width="4" stroke-linecap="round" stroke-linejoin="round"/>
<path d="M22.1581 168L26.9008 140.638H41.494L27.6305 168H22.1581Z" stroke="#3ABFEF" stroke-width="4" stroke-linecap="round" stroke-linejoin="round"/>
<path d="M45.5071 155.596L52.4388 140.638H41.494L39.6698 155.596H45.5071Z" stroke="#3ABFEF" stroke-width="4" stroke-linecap="round" stroke-linejoin="round"/>
<path d="M13.767 67.6723C13.1261 61.7415 14.5247 59.6529 21.7933 59.2812H179.399C185.91 59.5989 187.02 61.83 186.696 67.6723V136.26L20.6988 136.625L13.767 67.6723Z" stroke="#3ABFEF" stroke-width="4" stroke-linecap="round" stroke-linejoin="round"/>
<path d="M11.5781 47.6067C11.9429 51.255 13.767 64.3888 13.767 64.3888C13.9621 61.8014 14.8559 60.6986 18.5098 59.6461C20.8357 59.0831 26.4917 59.2303 37.8457 59.2813L32.0084 41.0398C30.0334 36.3843 29.2782 34.8615 27.2657 34.4729C27.2657 34.4729 12.6725 32.284 11.5781 34.4729C10.4836 36.6619 11.2132 43.9585 11.5781 47.6067Z" stroke="#3ABFEF" stroke-width="4" stroke-linecap="round" stroke-linejoin="round"/>
<path d="M29.8195 35.5674C30.8696 38.3703 34.9273 49.0182 37.8457 59.2813H69.2209L61.5595 37.7564C58.1039 27.581 53.5333 18.4205 50.6146 15.1371C47.696 11.8536 37.8457 8.935 32.0084 12.9481C26.1712 16.9612 28.7693 32.7644 29.8195 35.5674Z" stroke="#3ABFEF" stroke-width="4" stroke-linecap="round" stroke-linejoin="round"/>
</g>
<g filter="url(#filter2_d)">
<path d="M422.499 166.541L435.268 140.638H421.039L417.026 166.541H422.499Z" stroke="#3ABFEF" stroke-width="4" stroke-linecap="round" stroke-linejoin="round"/>
<path d="M438.551 155.961L446.212 140.638H435.632L434.538 155.961H438.551Z" stroke="#3ABFEF" stroke-width="4" stroke-linecap="round" stroke-linejoin="round"/>
<path d="M580.104 140.638V136.625L409 136.26V140.638H580.104Z" fill="#3ABFEF" stroke="#3ABFEF" stroke-width="4" stroke-linecap="round" stroke-linejoin="round"/>
<path d="M576.091 168L571.348 140.638H556.755L570.619 168H576.091Z" stroke="#3ABFEF" stroke-width="4" stroke-linecap="round" stroke-linejoin="round"/>
<path d="M552.742 155.596L545.81 140.638H556.755L558.579 155.596H552.742Z" stroke="#3ABFEF" stroke-width="4" stroke-linecap="round" stroke-linejoin="round"/>
<path d="M584.482 67.6723C585.123 61.7415 583.725 59.6529 576.456 59.2812H418.85C412.339 59.5989 411.229 61.83 411.554 67.6723V136.26L577.551 136.625L584.482 67.6723Z" stroke="#3ABFEF" stroke-width="4" stroke-linecap="round" stroke-linejoin="round"/>
<path d="M586.671 47.6067C586.306 51.255 584.482 64.3888 584.482 64.3888C584.287 61.8014 583.393 60.6986 579.739 59.6461C577.414 59.0831 571.758 59.2303 560.404 59.2813L566.241 41.0398C568.216 36.3843 568.971 34.8615 570.984 34.4729C570.984 34.4729 585.577 32.284 586.671 34.4729C587.766 36.6619 587.036 43.9585 586.671 47.6067Z" stroke="#3ABFEF" stroke-width="4" stroke-linecap="round" stroke-linejoin="round"/>
<path d="M568.43 35.5674C567.38 38.3703 563.322 49.0182 560.404 59.2813H529.028L536.69 37.7564C540.145 27.581 544.716 18.4205 547.635 15.1371C550.553 11.8536 560.404 8.935 566.241 12.9481C572.078 16.9612 569.48 32.7644 568.43 35.5674Z" stroke="#3ABFEF" stroke-width="4" stroke-linecap="round" stroke-linejoin="round"/>
</g>
<defs>
<filter id="filter0_d" x="204" y="63" width="192.056" height="117.692" filterUnits="userSpaceOnUse" color-interpolation-filters="sRGB">
<feFlood flood-opacity="0" result="BackgroundImageFix"/>
<feColorMatrix in="SourceAlpha" type="matrix" values="0 0 0 0 0 0 0 0 0 0 0 0 0 0 0 0 0 0 127 0"/>
<feOffset dx="1" dy="1"/>
<feGaussianBlur stdDeviation="5"/>
<feColorMatrix type="matrix" values="0 0 0 0 0.929412 0 0 0 0 0.0784314 0 0 0 0 1 0 0 0 1 0"/>
<feBlend mode="normal" in2="BackgroundImageFix" result="effect1_dropShadow"/>
<feBlend mode="normal" in="SourceGraphic" in2="effect1_dropShadow" result="shape"/>
</filter>
<filter id="filter1_d" x="0" y="0.000549316" width="202.249" height="180.999" filterUnits="userSpaceOnUse" color-interpolation-filters="sRGB">
<feFlood flood-opacity="0" result="BackgroundImageFix"/>
<feColorMatrix in="SourceAlpha" type="matrix" values="0 0 0 0 0 0 0 0 0 0 0 0 0 0 0 0 0 0 127 0"/>
<feOffset dx="1" dy="1"/>
<feGaussianBlur stdDeviation="5"/>
<feColorMatrix type="matrix" values="0 0 0 0 0.227451 0 0 0 0 0.74902 0 0 0 0 0.937255 0 0 0 1 0"/>
<feBlend mode="normal" in2="BackgroundImageFix" result="effect1_dropShadow"/>
<feBlend mode="normal" in="SourceGraphic" in2="effect1_dropShadow" result="shape"/>
</filter>
<filter id="filter2_d" x="398" y="0.000549316" width="202.249" height="180.999" filterUnits="userSpaceOnUse" color-interpolation-filters="sRGB">
<feFlood flood-opacity="0" result="BackgroundImageFix"/>
<feColorMatrix in="SourceAlpha" type="matrix" values="0 0 0 0 0 0 0 0 0 0 0 0 0 0 0 0 0 0 127 0"/>
<feOffset dx="1" dy="1"/>
<feGaussianBlur stdDeviation="5"/>
<feColorMatrix type="matrix" values="0 0 0 0 0.227451 0 0 0 0 0.74902 0 0 0 0 0.937255 0 0 0 1 0"/>
<feBlend mode="normal" in2="BackgroundImageFix" result="effect1_dropShadow"/>
<feBlend mode="normal" in="SourceGraphic" in2="effect1_dropShadow" result="shape"/>
</filter>
</defs>
</svg>
