<svg width="1359" height="281" viewBox="0 0 1359 281" fill="none" xmlns="http://www.w3.org/2000/svg">
<g filter="url(#filter0_d)">
<g filter="url(#filter1_d)">
<path d="M11 246.35V236C41.1116 243.093 57.6029 243.599 89 236V246.35C60.088 254.719 43.076 254.469 11 246.35Z" fill="#8673EB"/>
</g>
<path d="M11.3087 258.5V104.5H88.3087V258.5C60.5513 271.556 31.8589 268.468 11.3087 258.5Z" stroke="white"/>
<path d="M11.3087 104.5C11.3087 93 35.7233 93 54.5038 93C73.2843 93 88.3087 94.9167 88.3087 104.5C88.3087 114.083 73.2843 116 56.3819 116C39.4794 116 11.3087 116 11.3087 104.5Z" fill="white" stroke="white" stroke-width="4" stroke-linejoin="round"/>
<path d="M50.3087 9V93" stroke="white" stroke-width="4"/>
<path d="M11.3087 104.5C11.3087 104.5 10.1944 247.204 12.2001 258.298C14.2058 269.391 86.4115 270.4 88.4173 258.298C90.423 246.196 88.3087 104 88.3087 104" stroke="white" stroke-width="4"/>
<g filter="url(#filter2_d)">
<path d="M10 132.35V122C40.1116 129.093 56.6029 129.599 88 122V132.35C59.088 140.719 42.076 140.469 10 132.35Z" fill="white"/>
</g>
</g>
<g filter="url(#filter3_d)">
<g filter="url(#filter4_d)">
<path d="M330 214.35V204C360.112 211.093 376.603 211.599 408 204V214.35C379.088 222.719 362.076 222.469 330 214.35Z" fill="#8673EB"/>
</g>
<path d="M329.617 224.5V70.5H406.617V224.5C378.86 237.556 350.167 234.468 329.617 224.5Z" stroke="white"/>
<path d="M329.617 70.5C329.617 59 354.032 59 372.812 59C391.593 59 406.617 60.9167 406.617 70.5C406.617 80.0833 391.593 82 374.69 82C357.788 82 329.617 82 329.617 70.5Z" fill="white" stroke="white" stroke-width="4" stroke-linejoin="round"/>
<path d="M368.617 9V59" stroke="white" stroke-width="4"/>
<path d="M329.617 70.5C329.617 70.5 328.503 213.204 330.509 224.298C332.514 235.391 404.72 236.4 406.726 224.298C408.732 212.196 406.617 70 406.617 70" stroke="white" stroke-width="4"/>
<g filter="url(#filter5_d)">
<path d="M329 100.35V90C359.112 97.093 375.603 97.5989 407 90V100.35C378.088 108.719 361.076 108.469 329 100.35Z" fill="white"/>
</g>
</g>
<g filter="url(#filter6_d)">
<path d="M922.617 225.5V71.5H999.617V225.5C971.86 238.556 943.167 235.468 922.617 225.5Z" stroke="white"/>
<g filter="url(#filter7_d)">
<path d="M923 215.35V205C953.112 212.093 969.603 212.599 1001 205V215.35C972.088 223.719 955.076 223.469 923 215.35Z" fill="#8673EB"/>
</g>
<path d="M922.617 71.5C922.617 60 947.032 60 965.812 60C984.593 60 999.617 61.9167 999.617 71.5C999.617 81.0833 984.593 83 967.69 83C950.788 83 922.617 83 922.617 71.5Z" fill="white" stroke="white" stroke-width="4" stroke-linejoin="round"/>
<path d="M961.617 10V60" stroke="white" stroke-width="4"/>
<path d="M922.617 71.5C922.617 71.5 921.503 214.204 923.509 225.298C925.514 236.391 997.72 237.4 999.726 225.298C1001.73 213.196 999.617 71 999.617 71" stroke="white" stroke-width="4"/>
<g filter="url(#filter8_d)">
<path d="M922 101.35V91C952.112 98.093 968.603 98.5989 1000 91V101.35C971.088 109.719 954.076 109.469 922 101.35Z" fill="white"/>
</g>
</g>
<g filter="url(#filter9_d)">
<g filter="url(#filter10_d)">
<path d="M1267 251.35V241C1297.11 248.093 1313.6 248.599 1345 241V251.35C1316.09 259.719 1299.08 259.469 1267 251.35Z" fill="#8673EB"/>
</g>
<path d="M1267.62 259.5V105.5H1344.62V259.5C1316.86 272.556 1288.17 269.468 1267.62 259.5Z" stroke="white"/>
<path d="M1267.62 105.5C1267.62 94 1292.03 94 1310.81 94C1329.59 94 1344.62 95.9167 1344.62 105.5C1344.62 115.083 1329.59 117 1312.69 117C1295.79 117 1267.62 117 1267.62 105.5Z" fill="white" stroke="white" stroke-width="4" stroke-linejoin="round"/>
<path d="M1306.62 10V94" stroke="white" stroke-width="4"/>
<path d="M1267.62 105.5C1267.62 105.5 1266.5 248.204 1268.51 259.298C1270.51 270.391 1342.72 271.4 1344.73 259.298C1346.73 247.196 1344.62 105 1344.62 105" stroke="white" stroke-width="4"/>
<g filter="url(#filter11_d)">
<path d="M1266 137.35V127C1296.11 134.093 1312.6 134.599 1344 127V137.35C1315.09 145.719 1298.08 145.469 1266 137.35Z" fill="white"/>
</g>
</g>
<defs>
<filter id="filter0_d" x="0" y="0" width="102.281" height="280" filterUnits="userSpaceOnUse" color-interpolation-filters="sRGB">
<feFlood flood-opacity="0" result="BackgroundImageFix"/>
<feColorMatrix in="SourceAlpha" type="matrix" values="0 0 0 0 0 0 0 0 0 0 0 0 0 0 0 0 0 0 127 0"/>
<feOffset dx="1" dy="1"/>
<feGaussianBlur stdDeviation="5"/>
<feColorMatrix type="matrix" values="0 0 0 0 1 0 0 0 0 1 0 0 0 0 1 0 0 0 1 0"/>
<feBlend mode="normal" in2="BackgroundImageFix" result="effect1_dropShadow"/>
<feBlend mode="normal" in="SourceGraphic" in2="effect1_dropShadow" result="shape"/>
</filter>
<filter id="filter1_d" x="2" y="227" width="98" height="36.5333" filterUnits="userSpaceOnUse" color-interpolation-filters="sRGB">
<feFlood flood-opacity="0" result="BackgroundImageFix"/>
<feColorMatrix in="SourceAlpha" type="matrix" values="0 0 0 0 0 0 0 0 0 0 0 0 0 0 0 0 0 0 127 0"/>
<feOffset dx="1" dy="1"/>
<feGaussianBlur stdDeviation="5"/>
<feColorMatrix type="matrix" values="0 0 0 0 0.517647 0 0 0 0 0.439216 0 0 0 0 0.921569 0 0 0 1 0"/>
<feBlend mode="normal" in2="BackgroundImageFix" result="effect1_dropShadow"/>
<feBlend mode="normal" in="SourceGraphic" in2="effect1_dropShadow" result="shape"/>
</filter>
<filter id="filter2_d" x="1" y="113" width="98" height="36.5333" filterUnits="userSpaceOnUse" color-interpolation-filters="sRGB">
<feFlood flood-opacity="0" result="BackgroundImageFix"/>
<feColorMatrix in="SourceAlpha" type="matrix" values="0 0 0 0 0 0 0 0 0 0 0 0 0 0 0 0 0 0 127 0"/>
<feOffset dx="1" dy="1"/>
<feGaussianBlur stdDeviation="5"/>
<feColorMatrix type="matrix" values="0 0 0 0 1 0 0 0 0 1 0 0 0 0 1 0 0 0 1 0"/>
<feBlend mode="normal" in2="BackgroundImageFix" result="effect1_dropShadow"/>
<feBlend mode="normal" in="SourceGraphic" in2="effect1_dropShadow" result="shape"/>
</filter>
<filter id="filter3_d" x="318.309" y="0" width="102.281" height="246" filterUnits="userSpaceOnUse" color-interpolation-filters="sRGB">
<feFlood flood-opacity="0" result="BackgroundImageFix"/>
<feColorMatrix in="SourceAlpha" type="matrix" values="0 0 0 0 0 0 0 0 0 0 0 0 0 0 0 0 0 0 127 0"/>
<feOffset dx="1" dy="1"/>
<feGaussianBlur stdDeviation="5"/>
<feColorMatrix type="matrix" values="0 0 0 0 1 0 0 0 0 1 0 0 0 0 1 0 0 0 1 0"/>
<feBlend mode="normal" in2="BackgroundImageFix" result="effect1_dropShadow"/>
<feBlend mode="normal" in="SourceGraphic" in2="effect1_dropShadow" result="shape"/>
</filter>
<filter id="filter4_d" x="321" y="195" width="98" height="36.5333" filterUnits="userSpaceOnUse" color-interpolation-filters="sRGB">
<feFlood flood-opacity="0" result="BackgroundImageFix"/>
<feColorMatrix in="SourceAlpha" type="matrix" values="0 0 0 0 0 0 0 0 0 0 0 0 0 0 0 0 0 0 127 0"/>
<feOffset dx="1" dy="1"/>
<feGaussianBlur stdDeviation="5"/>
<feColorMatrix type="matrix" values="0 0 0 0 0.517647 0 0 0 0 0.439216 0 0 0 0 0.921569 0 0 0 1 0"/>
<feBlend mode="normal" in2="BackgroundImageFix" result="effect1_dropShadow"/>
<feBlend mode="normal" in="SourceGraphic" in2="effect1_dropShadow" result="shape"/>
</filter>
<filter id="filter5_d" x="320" y="81" width="98" height="36.5333" filterUnits="userSpaceOnUse" color-interpolation-filters="sRGB">
<feFlood flood-opacity="0" result="BackgroundImageFix"/>
<feColorMatrix in="SourceAlpha" type="matrix" values="0 0 0 0 0 0 0 0 0 0 0 0 0 0 0 0 0 0 127 0"/>
<feOffset dx="1" dy="1"/>
<feGaussianBlur stdDeviation="5"/>
<feColorMatrix type="matrix" values="0 0 0 0 1 0 0 0 0 1 0 0 0 0 1 0 0 0 1 0"/>
<feBlend mode="normal" in2="BackgroundImageFix" result="effect1_dropShadow"/>
<feBlend mode="normal" in="SourceGraphic" in2="effect1_dropShadow" result="shape"/>
</filter>
<filter id="filter6_d" x="911.309" y="1" width="102.281" height="246" filterUnits="userSpaceOnUse" color-interpolation-filters="sRGB">
<feFlood flood-opacity="0" result="BackgroundImageFix"/>
<feColorMatrix in="SourceAlpha" type="matrix" values="0 0 0 0 0 0 0 0 0 0 0 0 0 0 0 0 0 0 127 0"/>
<feOffset dx="1" dy="1"/>
<feGaussianBlur stdDeviation="5"/>
<feColorMatrix type="matrix" values="0 0 0 0 1 0 0 0 0 1 0 0 0 0 1 0 0 0 1 0"/>
<feBlend mode="normal" in2="BackgroundImageFix" result="effect1_dropShadow"/>
<feBlend mode="normal" in="SourceGraphic" in2="effect1_dropShadow" result="shape"/>
</filter>
<filter id="filter7_d" x="914" y="196" width="98" height="36.5333" filterUnits="userSpaceOnUse" color-interpolation-filters="sRGB">
<feFlood flood-opacity="0" result="BackgroundImageFix"/>
<feColorMatrix in="SourceAlpha" type="matrix" values="0 0 0 0 0 0 0 0 0 0 0 0 0 0 0 0 0 0 127 0"/>
<feOffset dx="1" dy="1"/>
<feGaussianBlur stdDeviation="5"/>
<feColorMatrix type="matrix" values="0 0 0 0 0.517647 0 0 0 0 0.439216 0 0 0 0 0.921569 0 0 0 1 0"/>
<feBlend mode="normal" in2="BackgroundImageFix" result="effect1_dropShadow"/>
<feBlend mode="normal" in="SourceGraphic" in2="effect1_dropShadow" result="shape"/>
</filter>
<filter id="filter8_d" x="913" y="82" width="98" height="36.5333" filterUnits="userSpaceOnUse" color-interpolation-filters="sRGB">
<feFlood flood-opacity="0" result="BackgroundImageFix"/>
<feColorMatrix in="SourceAlpha" type="matrix" values="0 0 0 0 0 0 0 0 0 0 0 0 0 0 0 0 0 0 127 0"/>
<feOffset dx="1" dy="1"/>
<feGaussianBlur stdDeviation="5"/>
<feColorMatrix type="matrix" values="0 0 0 0 1 0 0 0 0 1 0 0 0 0 1 0 0 0 1 0"/>
<feBlend mode="normal" in2="BackgroundImageFix" result="effect1_dropShadow"/>
<feBlend mode="normal" in="SourceGraphic" in2="effect1_dropShadow" result="shape"/>
</filter>
<filter id="filter9_d" x="1256.31" y="1" width="102.281" height="280" filterUnits="userSpaceOnUse" color-interpolation-filters="sRGB">
<feFlood flood-opacity="0" result="BackgroundImageFix"/>
<feColorMatrix in="SourceAlpha" type="matrix" values="0 0 0 0 0 0 0 0 0 0 0 0 0 0 0 0 0 0 127 0"/>
<feOffset dx="1" dy="1"/>
<feGaussianBlur stdDeviation="5"/>
<feColorMatrix type="matrix" values="0 0 0 0 1 0 0 0 0 1 0 0 0 0 1 0 0 0 1 0"/>
<feBlend mode="normal" in2="BackgroundImageFix" result="effect1_dropShadow"/>
<feBlend mode="normal" in="SourceGraphic" in2="effect1_dropShadow" result="shape"/>
</filter>
<filter id="filter10_d" x="1258" y="232" width="98" height="36.5333" filterUnits="userSpaceOnUse" color-interpolation-filters="sRGB">
<feFlood flood-opacity="0" result="BackgroundImageFix"/>
<feColorMatrix in="SourceAlpha" type="matrix" values="0 0 0 0 0 0 0 0 0 0 0 0 0 0 0 0 0 0 127 0"/>
<feOffset dx="1" dy="1"/>
<feGaussianBlur stdDeviation="5"/>
<feColorMatrix type="matrix" values="0 0 0 0 0.517647 0 0 0 0 0.439216 0 0 0 0 0.921569 0 0 0 1 0"/>
<feBlend mode="normal" in2="BackgroundImageFix" result="effect1_dropShadow"/>
<feBlend mode="normal" in="SourceGraphic" in2="effect1_dropShadow" result="shape"/>
</filter>
<filter id="filter11_d" x="1257" y="118" width="98" height="36.5333" filterUnits="userSpaceOnUse" color-interpolation-filters="sRGB">
<feFlood flood-opacity="0" result="BackgroundImageFix"/>
<feColorMatrix in="SourceAlpha" type="matrix" values="0 0 0 0 0 0 0 0 0 0 0 0 0 0 0 0 0 0 127 0"/>
<feOffset dx="1" dy="1"/>
<feGaussianBlur stdDeviation="5"/>
<feColorMatrix type="matrix" values="0 0 0 0 1 0 0 0 0 1 0 0 0 0 1 0 0 0 1 0"/>
<feBlend mode="normal" in2="BackgroundImageFix" result="effect1_dropShadow"/>
<feBlend mode="normal" in="SourceGraphic" in2="effect1_dropShadow" result="shape"/>
</filter>
</defs>
</svg>
