<svg width="461" height="223" viewBox="0 0 461 223" fill="none" xmlns="http://www.w3.org/2000/svg">
<g filter="url(#filter0_d)">
<path d="M23.8506 209.197V70.4996H261.808V209.197H23.8506Z" stroke="#3ABFEF" stroke-width="4" stroke-linejoin="round"/>
</g>
<g filter="url(#filter1_d)">
<path d="M261.808 209.197V70.4996L328.72 65.6252V195.904L261.808 209.197Z" stroke="#3ABFEF" stroke-width="4" stroke-linejoin="round"/>
</g>
<g filter="url(#filter2_d)">
<path d="M11 70.4997V57.2059H261.808V70.4997H11Z" fill="#3ABFEF"/>
<path d="M11 70.4997V57.2059H261.808V70.4997H11Z" stroke="#3ABFEF" stroke-width="4" stroke-linejoin="round"/>
</g>
<g filter="url(#filter3_d)">
<path d="M328.72 65.1821L262.251 70.4996V57.2059L328.72 52.7747V65.1821Z" fill="#3ABFEF"/>
<path d="M328.72 65.1821L262.251 70.4996V57.2059L328.72 52.7747V65.1821Z" stroke="#3ABFEF" stroke-width="4" stroke-linejoin="round"/>
</g>
<g filter="url(#filter4_d)">
<path d="M66.8365 160V120.418H69.0505V139.804H91.6225V120.418H93.8365V160H91.6225V141.802H69.0505V160H66.8365ZM116.73 160.324C114.246 160.324 112.068 160.108 110.196 159.676C108.36 159.208 106.83 158.308 105.606 156.976C104.382 155.608 103.464 153.61 102.852 150.982C102.276 148.318 101.988 144.808 101.988 140.452C101.988 136.096 102.294 132.568 102.906 129.868C103.554 127.168 104.49 125.116 105.714 123.712C106.974 122.308 108.522 121.354 110.358 120.85C112.194 120.346 114.318 120.094 116.73 120.094C119.214 120.094 121.374 120.346 123.21 120.85C125.082 121.354 126.612 122.308 127.8 123.712C129.024 125.116 129.942 127.168 130.554 129.868C131.166 132.568 131.472 136.096 131.472 140.452C131.472 144.808 131.166 148.318 130.554 150.982C129.942 153.61 129.024 155.608 127.8 156.976C126.576 158.308 125.028 159.208 123.156 159.676C121.32 160.108 119.178 160.324 116.73 160.324ZM116.73 158.326C118.926 158.326 120.816 158.11 122.4 157.678C123.984 157.246 125.28 156.436 126.288 155.248C127.296 154.024 128.034 152.224 128.502 149.848C129.006 147.472 129.258 144.34 129.258 140.452C129.258 136.348 129.006 133.09 128.502 130.678C128.034 128.23 127.296 126.394 126.288 125.17C125.28 123.91 123.984 123.082 122.4 122.686C120.816 122.29 118.926 122.092 116.73 122.092C114.678 122.092 112.86 122.29 111.276 122.686C109.728 123.082 108.414 123.91 107.334 125.17C106.29 126.394 105.498 128.23 104.958 130.678C104.454 133.09 104.202 136.348 104.202 140.452C104.202 144.34 104.418 147.472 104.85 149.848C105.282 152.224 105.984 154.024 106.956 155.248C107.964 156.436 109.26 157.246 110.844 157.678C112.428 158.11 114.39 158.326 116.73 158.326ZM148.634 160V122.416H135.62V120.418H163.862V122.416H150.848V160H148.634ZM176.494 160.162C175.306 160.198 174.118 160.072 172.93 159.784C171.742 159.46 170.752 158.794 169.96 157.786C169.168 156.778 168.772 155.212 168.772 153.088V127.708C168.772 125.872 169.114 124.414 169.798 123.334C170.482 122.254 171.364 121.498 172.444 121.066C173.56 120.598 174.712 120.382 175.9 120.418C178.744 120.454 181.498 120.508 184.162 120.58C186.862 120.652 189.508 120.724 192.1 120.796V122.47H176.224C174.604 122.47 173.326 122.902 172.39 123.766C171.454 124.63 170.986 126.016 170.986 127.924V139.372L189.886 139.534V141.154L170.986 141.37V152.764C170.986 154.384 171.256 155.572 171.796 156.328C172.372 157.084 173.092 157.57 173.956 157.786C174.82 158.002 175.72 158.11 176.656 158.11H192.1V159.784C189.544 159.856 186.934 159.928 184.27 160C181.642 160.072 179.05 160.126 176.494 160.162ZM207.33 160C206.07 160 204.9 159.802 203.82 159.406C202.74 159.01 201.858 158.29 201.174 157.246C200.526 156.202 200.202 154.726 200.202 152.818V120.418H202.416V152.656C202.416 154.168 202.668 155.302 203.172 156.058C203.676 156.778 204.324 157.264 205.116 157.516C205.944 157.768 206.79 157.894 207.654 157.894H222.72V160H207.33Z" fill="#ED14FF"/>
</g>
<g filter="url(#filter5_d)">
<path d="M33.7799 51.3873V49.3834H80.5387V51.3873H33.7799Z" stroke="#ED14FF" stroke-width="4" stroke-linecap="round" stroke-linejoin="round"/>
<path d="M57.8273 31.3478C64.2061 32.9054 66.3952 33.362 71.187 42.7035" stroke="#ED14FF" stroke-width="4" stroke-linecap="round" stroke-linejoin="round"/>
<path d="M39.7918 41.3676C40.4598 38.0277 44.4677 26.672 57.8273 27.34C71.187 28.0079 74.5269 38.6957 75.1949 41.3676C75.8629 44.0395 79.2028 48.7154 79.2028 48.7154H35.1159C35.1159 48.7154 39.1238 44.7075 39.7918 41.3676Z" stroke="#ED14FF" stroke-width="4" stroke-linecap="round" stroke-linejoin="round"/>
<path d="M54.4874 27.3399V24H59.8313V27.3399" stroke="#ED14FF" stroke-width="4" stroke-linecap="round" stroke-linejoin="round"/>
</g>
<g filter="url(#filter6_d)">
<path d="M45.7693 99.5334H239.399" stroke="#ED14FF" stroke-width="2" stroke-linecap="round" stroke-linejoin="round"/>
</g>
<g filter="url(#filter7_d)">
<path d="M45.7693 179.863H239.399" stroke="#ED14FF" stroke-width="2" stroke-linecap="round" stroke-linejoin="round"/>
</g>
<g filter="url(#filter8_d)">
<path d="M379.985 119.998C382.523 123.274 395.473 125.248 395.473 125.248C395.473 125.248 391.223 118.694 386.18 115.274C381.137 111.853 378.436 114.224 378.436 114.224C378.436 114.224 377.447 116.723 379.985 119.998Z" stroke="#ED14FF" stroke-width="4"/>
</g>
<g filter="url(#filter9_d)">
<path d="M407.528 29.413C401.446 45.3874 400.004 127.128 400.004 127.128C400.004 127.128 418.32 60.7357 420.759 44.2233C423.199 27.7108 416.848 13.1136 416.848 13.1136C416.848 13.1136 413.61 13.4387 407.528 29.413Z" stroke="#ED14FF" stroke-width="4"/>
</g>
<g filter="url(#filter10_d)">
<path d="M380.221 66.492C381.582 71.4064 401.382 132.216 403.117 127.487L404.438 92.2973C404.438 92.2973 405.318 64.9391 400.035 55.9692C394.751 46.9992 380.221 42.0658 380.221 42.0658C377.748 47.0223 378.86 61.5775 380.221 66.492Z" stroke="#ED14FF" stroke-width="4"/>
</g>
<g filter="url(#filter11_d)">
<path d="M424.305 109.213C417.091 113.469 413.513 126.25 413.513 126.25C413.513 126.25 424.547 122.79 429.162 120.003C433.777 117.216 434.714 109.21 434.559 109.213C434.559 109.213 431.52 104.957 424.305 109.213Z" stroke="#ED14FF" stroke-width="4"/>
</g>
<g filter="url(#filter12_d)">
<path d="M371.922 89.1689C378.86 105.873 399.482 123.745 399.482 123.745C399.482 123.745 394.429 105.415 386.954 86.1623C379.48 66.9097 367.412 63.1118 367.412 63.1118C367.412 63.1118 364.984 72.465 371.922 89.1689Z" stroke="#ED14FF" stroke-width="4"/>
</g>
<g filter="url(#filter13_d)">
<path d="M437.051 94.8828C430.035 107.247 410.914 126.021 410.914 126.021C410.914 126.021 415.489 98.1968 420.528 88.3414C425.567 78.4861 441.574 65.6757 441.574 65.6757C441.963 64.9599 444.066 82.519 437.051 94.8828Z" stroke="#ED14FF" stroke-width="4"/>
</g>
<g filter="url(#filter14_d)">
<path d="M414.119 48.1753C408.121 63.6047 401.646 125.015 404.493 125.248C405.127 126.732 442.072 75.579 445.583 60.0811C449.093 44.5833 445.583 23.0241 445.583 23.0241C442.915 20.6361 420.117 32.7459 414.119 48.1753Z" stroke="#ED14FF" stroke-width="4"/>
</g>
<g filter="url(#filter15_d)">
<path d="M394.471 127.753V123.745H416.018V127.753H394.471Z" stroke="#ED14FF" stroke-width="4"/>
</g>
<g filter="url(#filter16_d)">
<path d="M435.561 128.255H376.431L389.46 207.428H427.543L435.561 128.255Z" stroke="#3ABFEF" stroke-width="4" stroke-linejoin="round"/>
</g>
<g filter="url(#filter17_d)">
<path d="M425.539 137.274H386.453L395.065 198.408H420.239L425.539 137.274Z" fill="#3ABFEF"/>
<path d="M425.539 137.274H386.453L395.065 198.408H420.239L425.539 137.274Z" stroke="#3ABFEF" stroke-width="4" stroke-linejoin="round"/>
</g>
<defs>
<filter id="filter0_d" x="12.8506" y="59.4996" width="261.958" height="162.698" filterUnits="userSpaceOnUse" color-interpolation-filters="sRGB">
<feFlood flood-opacity="0" result="BackgroundImageFix"/>
<feColorMatrix in="SourceAlpha" type="matrix" values="0 0 0 0 0 0 0 0 0 0 0 0 0 0 0 0 0 0 127 0"/>
<feOffset dx="1" dy="1"/>
<feGaussianBlur stdDeviation="5"/>
<feColorMatrix type="matrix" values="0 0 0 0 0.227451 0 0 0 0 0.74902 0 0 0 0 0.937255 0 0 0 1 0"/>
<feBlend mode="normal" in2="BackgroundImageFix" result="effect1_dropShadow"/>
<feBlend mode="normal" in="SourceGraphic" in2="effect1_dropShadow" result="shape"/>
</filter>
<filter id="filter1_d" x="250.808" y="54.6252" width="90.9118" height="167.572" filterUnits="userSpaceOnUse" color-interpolation-filters="sRGB">
<feFlood flood-opacity="0" result="BackgroundImageFix"/>
<feColorMatrix in="SourceAlpha" type="matrix" values="0 0 0 0 0 0 0 0 0 0 0 0 0 0 0 0 0 0 127 0"/>
<feOffset dx="1" dy="1"/>
<feGaussianBlur stdDeviation="5"/>
<feColorMatrix type="matrix" values="0 0 0 0 0.227451 0 0 0 0 0.74902 0 0 0 0 0.937255 0 0 0 1 0"/>
<feBlend mode="normal" in2="BackgroundImageFix" result="effect1_dropShadow"/>
<feBlend mode="normal" in="SourceGraphic" in2="effect1_dropShadow" result="shape"/>
</filter>
<filter id="filter2_d" x="0" y="46.2059" width="274.808" height="37.2937" filterUnits="userSpaceOnUse" color-interpolation-filters="sRGB">
<feFlood flood-opacity="0" result="BackgroundImageFix"/>
<feColorMatrix in="SourceAlpha" type="matrix" values="0 0 0 0 0 0 0 0 0 0 0 0 0 0 0 0 0 0 127 0"/>
<feOffset dx="1" dy="1"/>
<feGaussianBlur stdDeviation="5"/>
<feColorMatrix type="matrix" values="0 0 0 0 0.227451 0 0 0 0 0.74902 0 0 0 0 0.937255 0 0 0 1 0"/>
<feBlend mode="normal" in2="BackgroundImageFix" result="effect1_dropShadow"/>
<feBlend mode="normal" in="SourceGraphic" in2="effect1_dropShadow" result="shape"/>
</filter>
<filter id="filter3_d" x="251.251" y="41.7747" width="90.4686" height="41.725" filterUnits="userSpaceOnUse" color-interpolation-filters="sRGB">
<feFlood flood-opacity="0" result="BackgroundImageFix"/>
<feColorMatrix in="SourceAlpha" type="matrix" values="0 0 0 0 0 0 0 0 0 0 0 0 0 0 0 0 0 0 127 0"/>
<feOffset dx="1" dy="1"/>
<feGaussianBlur stdDeviation="5"/>
<feColorMatrix type="matrix" values="0 0 0 0 0.227451 0 0 0 0 0.74902 0 0 0 0 0.937255 0 0 0 1 0"/>
<feBlend mode="normal" in2="BackgroundImageFix" result="effect1_dropShadow"/>
<feBlend mode="normal" in="SourceGraphic" in2="effect1_dropShadow" result="shape"/>
</filter>
<filter id="filter4_d" x="57.8365" y="111.094" width="175.883" height="60.23" filterUnits="userSpaceOnUse" color-interpolation-filters="sRGB">
<feFlood flood-opacity="0" result="BackgroundImageFix"/>
<feColorMatrix in="SourceAlpha" type="matrix" values="0 0 0 0 0 0 0 0 0 0 0 0 0 0 0 0 0 0 127 0"/>
<feOffset dx="1" dy="1"/>
<feGaussianBlur stdDeviation="5"/>
<feColorMatrix type="matrix" values="0 0 0 0 0.929412 0 0 0 0 0.0784314 0 0 0 0 1 0 0 0 1 0"/>
<feBlend mode="normal" in2="BackgroundImageFix" result="effect1_dropShadow"/>
<feBlend mode="normal" in="SourceGraphic" in2="effect1_dropShadow" result="shape"/>
</filter>
<filter id="filter5_d" x="22.7799" y="13" width="70.7588" height="51.3873" filterUnits="userSpaceOnUse" color-interpolation-filters="sRGB">
<feFlood flood-opacity="0" result="BackgroundImageFix"/>
<feColorMatrix in="SourceAlpha" type="matrix" values="0 0 0 0 0 0 0 0 0 0 0 0 0 0 0 0 0 0 127 0"/>
<feOffset dx="1" dy="1"/>
<feGaussianBlur stdDeviation="5"/>
<feColorMatrix type="matrix" values="0 0 0 0 0.929412 0 0 0 0 0.0784314 0 0 0 0 1 0 0 0 1 0"/>
<feBlend mode="normal" in2="BackgroundImageFix" result="effect1_dropShadow"/>
<feBlend mode="normal" in="SourceGraphic" in2="effect1_dropShadow" result="shape"/>
</filter>
<filter id="filter6_d" x="41.7693" y="95.5334" width="203.629" height="10" filterUnits="userSpaceOnUse" color-interpolation-filters="sRGB">
<feFlood flood-opacity="0" result="BackgroundImageFix"/>
<feColorMatrix in="SourceAlpha" type="matrix" values="0 0 0 0 0 0 0 0 0 0 0 0 0 0 0 0 0 0 127 0"/>
<feOffset dx="1" dy="1"/>
<feGaussianBlur stdDeviation="2"/>
<feColorMatrix type="matrix" values="0 0 0 0 0.929412 0 0 0 0 0.0784314 0 0 0 0 1 0 0 0 1 0"/>
<feBlend mode="normal" in2="BackgroundImageFix" result="effect1_dropShadow"/>
<feBlend mode="normal" in="SourceGraphic" in2="effect1_dropShadow" result="shape"/>
</filter>
<filter id="filter7_d" x="41.7693" y="175.863" width="203.629" height="10" filterUnits="userSpaceOnUse" color-interpolation-filters="sRGB">
<feFlood flood-opacity="0" result="BackgroundImageFix"/>
<feColorMatrix in="SourceAlpha" type="matrix" values="0 0 0 0 0 0 0 0 0 0 0 0 0 0 0 0 0 0 127 0"/>
<feOffset dx="1" dy="1"/>
<feGaussianBlur stdDeviation="2"/>
<feColorMatrix type="matrix" values="0 0 0 0 0.929412 0 0 0 0 0.0784314 0 0 0 0 1 0 0 0 1 0"/>
<feBlend mode="normal" in2="BackgroundImageFix" result="effect1_dropShadow"/>
<feBlend mode="normal" in="SourceGraphic" in2="effect1_dropShadow" result="shape"/>
</filter>
<filter id="filter8_d" x="367.246" y="102.424" width="43.3283" height="36.4727" filterUnits="userSpaceOnUse" color-interpolation-filters="sRGB">
<feFlood flood-opacity="0" result="BackgroundImageFix"/>
<feColorMatrix in="SourceAlpha" type="matrix" values="0 0 0 0 0 0 0 0 0 0 0 0 0 0 0 0 0 0 127 0"/>
<feOffset dx="1" dy="1"/>
<feGaussianBlur stdDeviation="5"/>
<feColorMatrix type="matrix" values="0 0 0 0 0.929412 0 0 0 0 0.0784314 0 0 0 0 1 0 0 0 1 0"/>
<feBlend mode="normal" in2="BackgroundImageFix" result="effect1_dropShadow"/>
<feBlend mode="normal" in="SourceGraphic" in2="effect1_dropShadow" result="shape"/>
</filter>
<filter id="filter9_d" x="381.45" y="0.436523" width="57.0376" height="139.469" filterUnits="userSpaceOnUse" color-interpolation-filters="sRGB">
<feFlood flood-opacity="0" result="BackgroundImageFix"/>
<feColorMatrix in="SourceAlpha" type="matrix" values="0 0 0 0 0 0 0 0 0 0 0 0 0 0 0 0 0 0 127 0"/>
<feOffset dx="1" dy="1"/>
<feGaussianBlur stdDeviation="5"/>
<feColorMatrix type="matrix" values="0 0 0 0 0.929412 0 0 0 0 0.0784314 0 0 0 0 1 0 0 0 1 0"/>
<feBlend mode="normal" in2="BackgroundImageFix" result="effect1_dropShadow"/>
<feBlend mode="normal" in="SourceGraphic" in2="effect1_dropShadow" result="shape"/>
</filter>
<filter id="filter10_d" x="367.754" y="30.6106" width="49.7387" height="110.141" filterUnits="userSpaceOnUse" color-interpolation-filters="sRGB">
<feFlood flood-opacity="0" result="BackgroundImageFix"/>
<feColorMatrix in="SourceAlpha" type="matrix" values="0 0 0 0 0 0 0 0 0 0 0 0 0 0 0 0 0 0 127 0"/>
<feOffset dx="1" dy="1"/>
<feGaussianBlur stdDeviation="5"/>
<feColorMatrix type="matrix" values="0 0 0 0 0.929412 0 0 0 0 0.0784314 0 0 0 0 1 0 0 0 1 0"/>
<feBlend mode="normal" in2="BackgroundImageFix" result="effect1_dropShadow"/>
<feBlend mode="normal" in="SourceGraphic" in2="effect1_dropShadow" result="shape"/>
</filter>
<filter id="filter11_d" x="401.593" y="96.3207" width="45.9819" height="43.9409" filterUnits="userSpaceOnUse" color-interpolation-filters="sRGB">
<feFlood flood-opacity="0" result="BackgroundImageFix"/>
<feColorMatrix in="SourceAlpha" type="matrix" values="0 0 0 0 0 0 0 0 0 0 0 0 0 0 0 0 0 0 127 0"/>
<feOffset dx="1" dy="1"/>
<feGaussianBlur stdDeviation="5"/>
<feColorMatrix type="matrix" values="0 0 0 0 0.929412 0 0 0 0 0.0784314 0 0 0 0 1 0 0 0 1 0"/>
<feBlend mode="normal" in2="BackgroundImageFix" result="effect1_dropShadow"/>
<feBlend mode="normal" in="SourceGraphic" in2="effect1_dropShadow" result="shape"/>
</filter>
<filter id="filter12_d" x="356" y="51.5723" width="58.1664" height="89.0118" filterUnits="userSpaceOnUse" color-interpolation-filters="sRGB">
<feFlood flood-opacity="0" result="BackgroundImageFix"/>
<feColorMatrix in="SourceAlpha" type="matrix" values="0 0 0 0 0 0 0 0 0 0 0 0 0 0 0 0 0 0 127 0"/>
<feOffset dx="1" dy="1"/>
<feGaussianBlur stdDeviation="5"/>
<feColorMatrix type="matrix" values="0 0 0 0 0.929412 0 0 0 0 0.0784314 0 0 0 0 1 0 0 0 1 0"/>
<feBlend mode="normal" in2="BackgroundImageFix" result="effect1_dropShadow"/>
<feBlend mode="normal" in="SourceGraphic" in2="effect1_dropShadow" result="shape"/>
</filter>
<filter id="filter13_d" x="398.947" y="54.6518" width="56.2237" height="88.085" filterUnits="userSpaceOnUse" color-interpolation-filters="sRGB">
<feFlood flood-opacity="0" result="BackgroundImageFix"/>
<feColorMatrix in="SourceAlpha" type="matrix" values="0 0 0 0 0 0 0 0 0 0 0 0 0 0 0 0 0 0 127 0"/>
<feOffset dx="1" dy="1"/>
<feGaussianBlur stdDeviation="5"/>
<feColorMatrix type="matrix" values="0 0 0 0 0.929412 0 0 0 0 0.0784314 0 0 0 0 1 0 0 0 1 0"/>
<feBlend mode="normal" in2="BackgroundImageFix" result="effect1_dropShadow"/>
<feBlend mode="normal" in="SourceGraphic" in2="effect1_dropShadow" result="shape"/>
</filter>
<filter id="filter14_d" x="392.801" y="11.7225" width="67.3421" height="126.557" filterUnits="userSpaceOnUse" color-interpolation-filters="sRGB">
<feFlood flood-opacity="0" result="BackgroundImageFix"/>
<feColorMatrix in="SourceAlpha" type="matrix" values="0 0 0 0 0 0 0 0 0 0 0 0 0 0 0 0 0 0 127 0"/>
<feOffset dx="1" dy="1"/>
<feGaussianBlur stdDeviation="5"/>
<feColorMatrix type="matrix" values="0 0 0 0 0.929412 0 0 0 0 0.0784314 0 0 0 0 1 0 0 0 1 0"/>
<feBlend mode="normal" in2="BackgroundImageFix" result="effect1_dropShadow"/>
<feBlend mode="normal" in="SourceGraphic" in2="effect1_dropShadow" result="shape"/>
</filter>
<filter id="filter15_d" x="383.471" y="112.745" width="45.5472" height="28.0088" filterUnits="userSpaceOnUse" color-interpolation-filters="sRGB">
<feFlood flood-opacity="0" result="BackgroundImageFix"/>
<feColorMatrix in="SourceAlpha" type="matrix" values="0 0 0 0 0 0 0 0 0 0 0 0 0 0 0 0 0 0 127 0"/>
<feOffset dx="1" dy="1"/>
<feGaussianBlur stdDeviation="5"/>
<feColorMatrix type="matrix" values="0 0 0 0 0.929412 0 0 0 0 0.0784314 0 0 0 0 1 0 0 0 1 0"/>
<feBlend mode="normal" in2="BackgroundImageFix" result="effect1_dropShadow"/>
<feBlend mode="normal" in="SourceGraphic" in2="effect1_dropShadow" result="shape"/>
</filter>
<filter id="filter16_d" x="365.431" y="117.255" width="83.1295" height="103.173" filterUnits="userSpaceOnUse" color-interpolation-filters="sRGB">
<feFlood flood-opacity="0" result="BackgroundImageFix"/>
<feColorMatrix in="SourceAlpha" type="matrix" values="0 0 0 0 0 0 0 0 0 0 0 0 0 0 0 0 0 0 127 0"/>
<feOffset dx="1" dy="1"/>
<feGaussianBlur stdDeviation="5"/>
<feColorMatrix type="matrix" values="0 0 0 0 0.227451 0 0 0 0 0.74902 0 0 0 0 0.937255 0 0 0 1 0"/>
<feBlend mode="normal" in2="BackgroundImageFix" result="effect1_dropShadow"/>
<feBlend mode="normal" in="SourceGraphic" in2="effect1_dropShadow" result="shape"/>
</filter>
<filter id="filter17_d" x="375.453" y="126.274" width="63.0856" height="85.1338" filterUnits="userSpaceOnUse" color-interpolation-filters="sRGB">
<feFlood flood-opacity="0" result="BackgroundImageFix"/>
<feColorMatrix in="SourceAlpha" type="matrix" values="0 0 0 0 0 0 0 0 0 0 0 0 0 0 0 0 0 0 127 0"/>
<feOffset dx="1" dy="1"/>
<feGaussianBlur stdDeviation="5"/>
<feColorMatrix type="matrix" values="0 0 0 0 0.227451 0 0 0 0 0.74902 0 0 0 0 0.937255 0 0 0 1 0"/>
<feBlend mode="normal" in2="BackgroundImageFix" result="effect1_dropShadow"/>
<feBlend mode="normal" in="SourceGraphic" in2="effect1_dropShadow" result="shape"/>
</filter>
</defs>
</svg>
