<svg xmlns="http://www.w3.org/2000/svg" xmlns:xlink="http://www.w3.org/1999/xlink"><defs><style>.a{fill:#b2b2b2;}.b{fill:url(#a);}.c{fill:#b7b7b7;}.d{fill:#898989;}.e{fill:#c6c6c6;}.f{fill:#7a7a7a;}.g{fill:#a7a9ac;}</style><linearGradient id="a" x1="857.18" y1="857.18" x2="22.74" y2="22.74" gradientUnits="userSpaceOnUse"><stop offset="0" stop-color="#4d4d4d"/><stop offset="1" stop-color="#c2c2c2"/></linearGradient></defs><title>doors</title><rect class="a" width="879.92" height="879.92"/><rect class="b" x="22.74" y="22.74" width="834.44" height="834.44"/><polygon class="c" points="0 0 22.74 22.74 22.74 857.18 0 879.92 0 0"/><polygon class="d" points="879.92 0 857.18 22.74 857.18 857.18 879.92 879.92 879.92 0"/><polygon class="e" points="0 0 22.74 22.74 857.18 22.74 879.92 0 0 0"/><polygon class="f" points="0.62 879.92 23.36 857.18 857.8 857.18 880.54 879.92 0.62 879.92"/><circle class="c" cx="88.27" cy="88.27" r="15.54"/><circle class="e" cx="88.27" cy="88.27" r="10.4"/><circle class="g" cx="88.27" cy="791.64" r="15.54"/><circle class="c" cx="88.27" cy="791.64" r="10.4"/><circle class="d" cx="791.64" cy="88.27" r="15.54"/><circle class="g" cx="791.64" cy="88.27" r="10.4"/><circle class="f" cx="791.64" cy="791.64" r="15.54"/><circle class="d" cx="791.64" cy="791.64" r="10.4"/></svg>